<svg xmlns="http://www.w3.org/2000/svg" viewBox="1057.5 2045 44 44" fill="none"><g id="icon_4">
<rect x="1057.5" y="2045" width="44" height="44" rx="12" fill="#FBAD31" fill-opacity="0.101961" />
<g id="scissors">
<path id="Vector_17" d="M1075.94 2063.44L1079.5 2067M1086.83 2059.67L1075.94 2070.56M1082.07 2069.57L1086.83 2074.33M1076.75 2061.5C1076.75 2063.02 1075.52 2064.25 1074 2064.25C1072.48 2064.25 1071.25 2063.02 1071.25 2061.5C1071.25 2059.98 1072.48 2058.75 1074 2058.75C1075.52 2058.75 1076.75 2059.98 1076.75 2061.5ZM1076.75 2072.5C1076.75 2074.02 1075.52 2075.25 1074 2075.25C1072.48 2075.25 1071.25 2074.02 1071.25 2072.5C1071.25 2070.98 1072.48 2069.75 1074 2069.75C1075.52 2069.75 1076.75 2070.98 1076.75 2072.5Z" stroke="#FBAD31" stroke-width="2" stroke-linecap="round" />
</g>
</g>
</svg>